<svg data-v-fde0c5aa="" xmlns="http://www.w3.org/2000/svg" viewBox="0 0 300 300" class="iconLeft"><!----><defs data-v-fde0c5aa=""><!----></defs><rect data-v-fde0c5aa="" fill="transparent" x="0" y="0" width="300px" height="300px" class="logo-background-square"></rect><defs data-v-fde0c5aa=""><!----></defs><g data-v-fde0c5aa="" id="d1c305d8-6775-45a7-a9bd-d71c37133eb9" fill="#000000" transform="matrix(5.540694713592529,0,0,5.540694713592529,117.3271143255849,102.68246973976312)"><path d="M7.71 10.07C7.32 10.91 6.37 11.48 5.39 11.48C3.85 11.48 2.62 10.16 2.62 8.54C2.62 6.93 3.85 5.60 5.39 5.60C6.36 5.60 7.31 6.13 7.70 6.99L10.04 6.99C9.39 5.04 7.56 3.64 5.39 3.64C2.69 3.64 0.49 5.84 0.49 8.54C0.49 11.24 2.69 13.44 5.39 13.44C7.56 13.44 9.41 12.03 10.05 10.07ZM17.08 13.30L17.08 11.40L14.20 11.40L15.20 10.14C16.03 9.10 16.93 8.18 16.93 6.73C16.93 4.89 15.68 3.64 13.83 3.64C11.79 3.64 10.72 5.21 10.68 7.04L12.66 7.04C12.70 6.05 13.16 5.63 13.85 5.63C14.48 5.63 14.92 6.05 14.92 6.73C14.92 7.38 14.34 8.01 13.96 8.48L10.19 13.30ZM22.32 9.51L20.37 9.51L22.32 6.58ZM25.75 11.44L25.75 9.51L24.40 9.51L24.40 3.78L22.51 3.78L17.22 11.44L22.32 11.44L22.32 13.30L24.40 13.30L24.40 11.44Z"></path></g><defs data-v-fde0c5aa=""><linearGradient data-v-fde0c5aa="" gradientTransform="rotate(25)" id="48a85baa-8f78-4f23-995b-5ba9a4f0a33a" x1="0%" y1="0%" x2="100%" y2="0%"><stop data-v-fde0c5aa="" offset="0%" stop-color="#968ABF" stop-opacity="1"></stop><stop data-v-fde0c5aa="" offset="100%" stop-color="#E4A8AA" stop-opacity="1"></stop></linearGradient></defs><g data-v-fde0c5aa="" id="03823c29-b243-4821-b5c7-e9563ae18da9" stroke="none" fill="url(#48a85baa-8f78-4f23-995b-5ba9a4f0a33a)" transform="matrix(2.5452563762664795,0,0,2.5452563762664795,32.79692464216119,109.27589793907298)"><path d="M2.83 18.247l26.34-9.124L2.83 0zM29.17 32V13.753L2.83 22.877z"></path></g><!----></svg>
